<?xml version="1.0" encoding="utf-8"?>
<!-- Generator: Adobe Illustrator 27.4.1, SVG Export Plug-In . SVG Version: 6.00 Build 0)  -->
<svg version="1.1" id="Layer_1" xmlns="http://www.w3.org/2000/svg" xmlns:xlink="http://www.w3.org/1999/xlink" x="0px" y="0px"
	 viewBox="0 0 1200 800" style="enable-background:new 0 0 1200 800;" xml:space="preserve">
<style type="text/css">
	.st0{fill:#FFFFFF;stroke:#FF0032;stroke-width:4;stroke-miterlimit:10;}
</style>
<g>
	<path class="st0" d="M206.3,351.8h-44.85v-30.89h126.54v30.89h-44.85v132.05H206.3V351.8z"/>
	<path class="st0" d="M289.91,421.88c0-41.24,29.03-65.06,60.42-65.06s60.42,23.82,60.42,65.06c0,41.15-29.03,64.97-60.42,64.97
		S289.91,463.03,289.91,421.88z M373.08,421.88c0-21.46-7.55-35.4-22.75-35.4s-22.75,13.94-22.75,35.4s7.55,35.31,22.75,35.31
		S373.08,443.34,373.08,421.88z"/>
	<path class="st0" d="M441.61,359.82h29.98l2.65,21.68h0.91c9.03-16.56,22.59-24.68,35.24-24.68c7.09,0,11.21,0.91,14.8,2.5
		l-6.12,31.72c-4.41-1.09-8.06-2-13.38-2c-9.35,0-20.7,6.03-27.32,22.94v71.88h-36.75V359.82z"/>
	<path class="st0" d="M537.15,421.88c0-41.24,29.03-65.06,60.42-65.06c31.38,0,60.41,23.82,60.41,65.06
		c0,41.15-29.03,64.97-60.41,64.97C566.19,486.85,537.15,463.03,537.15,421.88z M620.32,421.88c0-21.46-7.55-35.4-22.75-35.4
		s-22.75,13.94-22.75,35.4s7.55,35.31,22.75,35.31S620.32,443.34,620.32,421.88z"/>
	<path class="st0" d="M688.86,359.82h29.98l2.65,15.7h0.91c10.44-10.03,22.94-18.7,39.85-18.7c26.97,0,38.47,19.03,38.47,50.03v77
		h-36.75v-72.29c0-17.85-4.79-23.43-15.4-23.43c-9.23,0-14.88,4.29-22.96,12.05v83.67h-36.75V359.82z"/>
	<path class="st0" d="M842.58,438.75v-50.1h-16.94v-27.42l19-1.41l4.29-32.94h30.39v32.94h29.73v28.83h-29.73v49.66
		c0,14.06,6.38,19.7,16.06,19.7c4.09,0,8.53-1.18,11.79-2.35l5.79,26.69c-6.59,2.09-15.53,4.5-27.56,4.5
		C854.76,486.85,842.58,467.49,842.58,438.75z"/>
	<path class="st0" d="M927.4,421.88c0-41.24,29.03-65.06,60.42-65.06c31.38,0,60.41,23.82,60.41,65.06
		c0,41.15-29.03,64.97-60.41,64.97C956.43,486.85,927.4,463.03,927.4,421.88z M1010.57,421.88c0-21.46-7.55-35.4-22.75-35.4
		s-22.75,13.94-22.75,35.4s7.55,35.31,22.75,35.31S1010.57,443.34,1010.57,421.88z"/>
</g>
</svg>
